<?xml version="1.0" encoding="UTF-8" standalone="no"?>
<svg
   xmlns:dc="http://purl.org/dc/elements/1.1/"
   xmlns:cc="http://creativecommons.org/ns#"
   xmlns:rdf="http://www.w3.org/1999/02/22-rdf-syntax-ns#"
   xmlns:svg="http://www.w3.org/2000/svg"
   xmlns="http://www.w3.org/2000/svg"
   id="svg93"
   version="1.1"
   viewBox="0 0 217 237"
   height="237px"
   width="217px">
  <metadata
     id="metadata97">
    <rdf:RDF>
      <cc:Work
         rdf:about="">
        <dc:format>image/svg+xml</dc:format>
        <dc:type
           rdf:resource="http://purl.org/dc/dcmitype/StillImage" />
        <dc:title>mf-avatar</dc:title>
      </cc:Work>
    </rdf:RDF>
  </metadata>
  <!-- Generator: Sketch 59 (86127) - https://sketch.com -->
  <title
     id="title2">mf-avatar</title>
  <desc
     id="desc4">Created with Sketch.</desc>
  <defs
     id="defs13">
    <circle
       r="108"
       cy="108"
       cx="108"
       id="path-1" />
    <path
       id="path-3"
       d="M-3.19744231e-14,144 L-3.19744231e-14,-1.42108547e-14 L237.6,-1.42108547e-14 L237.6,144 L226.8,144 C226.8,203.646753 178.446753,252 118.8,252 C59.153247,252 10.8,203.646753 10.8,144 L10.8,144 L-3.19744231e-14,144 Z" />
    <path
       id="path-5"
       d="M90,0 C117.835151,-5.11323436e-15 140.4,22.5648486 140.4,50.4 L140.400938,55.9494825 C145.50836,56.8068094 149.4,61.2489341 149.4,66.6 L149.4,79.2 C149.4,84.6471857 145.367296,89.1524828 140.124546,89.8932318 C138.264968,107.718065 127.114,122.779595 111.600867,130.149444 L111.6,146.7 L115.2,146.7 C150.988052,146.7 180,175.711948 180,211.5 L180,219.6 L0,219.6 L0,211.5 C-4.38277231e-15,175.711948 29.0119482,146.7 64.8,146.7 L68.4,146.7 L68.4001308,130.149918 C52.8864784,122.78024 41.7350715,107.718447 39.8746409,89.8932685 C34.6327044,89.1524828 30.6,84.6471857 30.6,79.2 L30.6,66.6 C30.6,61.2485843 34.4921486,56.8062286 39.6000641,55.9493144 L39.6,50.4 C39.6,22.5648486 62.1648486,5.11323436e-15 90,0 Z" />
    <path
       id="path-7"
       d="M140.401336,11.7639465 C156.691257,13.5869406 169.2,18.5974066 169.2,31.5692308 L169.194195,31.1796307 C192.467264,41.0099495 208.8,64.0473854 208.8,90.8995362 L208.8,99 L28.8,99 L28.8,90.8995362 C28.8,64.0473854 45.1327357,41.0099495 68.4058046,31.1796307 C68.6525649,18.4964574 81.0734584,13.568361 97.199665,11.7638345 L97.2,28.8 C97.2,40.7293506 106.870649,50.4 118.8,50.4 C130.729351,50.4 140.4,40.7293506 140.4,28.8 L140.4,28.8 Z" />
    <path
       id="path-9"
       d="M31.6060596,13.6152695 C32.5581409,22.1578223 39.8033886,28.8 48.6,28.8 C57.4237849,28.8 64.6866067,22.1167224 65.6025833,13.5360492 C65.6763017,12.8454714 64.9050687,11.7 63.9384903,11.7 C50.5338783,11.7 40.2641292,11.7 33.3781419,11.7 C32.4059551,11.7 31.5108052,12.7605992 31.6060596,13.6152695 Z" />
    <rect
       height="252"
       width="237.6"
       y="0"
       x="0"
       id="path-11" />
    <path
       id="path-13"
       d="M118.134982,20.9283675 C115.651186,18.3903589 112.767321,16.2361467 109.962327,14.0758953 C109.34341,13.5996978 108.714559,13.134975 108.109489,12.6406597 C107.971919,12.528329 106.562799,11.5191649 106.394222,11.147749 C105.988434,10.2542371 106.223538,10.9499625 106.27953,9.8837271 C106.350272,8.53545721 109.099576,4.72738744 107.048059,3.85410714 C106.145572,3.47000876 104.535665,4.49215737 103.669903,4.82975328 C101.976612,5.49045082 100.262549,6.05391591 98.5120609,6.53977621 C99.3507296,4.86870665 100.949799,1.52354791 97.944319,2.41887158 C95.6029101,3.11640875 93.421047,4.90977378 91.068199,5.75346159 C91.8466618,4.47736113 94.9599107,0.523140708 92.1467884,0.302102957 C91.2713941,0.233255133 88.7240809,1.87533613 87.781557,2.22561453 C84.9585007,3.27493992 82.0749374,3.95315138 79.1109992,4.48732594 C69.0328266,6.30364025 57.2475146,5.78577175 47.9231203,10.3741169 C40.7345316,13.9113248 33.6362518,19.399825 29.4835474,26.3887851 C25.4810568,33.1253031 23.9840362,40.4977576 23.1462706,48.2171688 C22.531568,53.8823181 22.4815971,59.7383087 22.7690804,65.4239915 C22.8630017,67.2868082 23.0725183,75.8737625 25.7787751,73.2732473 C27.1270871,71.9775192 27.1171531,66.7453865 27.4567146,64.9743669 C28.1325262,61.4507473 28.7830513,57.9114256 29.9098054,54.5004387 C31.8953972,48.4895405 34.2377091,45.6866929 39.1842288,41.5467645 C42.3585867,38.890386 44.5877115,35.3000323 47.625402,32.6201006 C48.9899695,31.4164715 47.9487079,31.5417866 50.1426122,31.6997139 C51.6164535,31.8057033 53.0969174,31.8461665 54.573769,31.8848179 C57.9901549,31.9735954 61.4119592,31.950948 64.8292481,31.9630266 C71.7113886,31.9877877 78.561319,32.0850201 85.4368368,31.7247769 C88.4922881,31.5647359 91.5561682,31.4780722 94.6034916,31.1954338 C96.3058144,31.0375065 99.3263462,29.9465101 100.727639,30.7802331 C102.010026,31.5429945 103.341781,34.0335947 104.262631,35.0536296 C106.438172,37.4642093 109.032145,39.3052847 111.576147,41.2819419 C116.880892,45.4034505 119.559153,46.9800218 121.170264,53.4209169 C122.775354,59.8379568 122.325315,65.791335 124.312111,72.106311 C124.661606,73.2166332 125.586068,75.1304819 126.725767,73.4150236 C126.93739,73.0964515 126.882603,71.3451249 126.882603,70.3374051 C126.882603,66.269634 127.912727,63.2175395 127.899903,59.1232077 C127.849209,46.6744341 127.446733,30.4417478 118.134982,20.9283675 Z" />
  </defs>
  <path
     id="path140"
     d="m 20.469916,113.32459 c 0,0 3.49893,-3.87767 4.1987,-4.10576 0.69979,-0.2281 -8.04752,-5.70246 -6.47299,-21.897441 1.57452,-16.194979 10.32181,-16.651175 10.32181,-16.651175 0,0 0.69979,-12.54541 6.64796,-17.107375 5.94817,-4.561967 11.89633,-2.509076 11.89633,-2.509076 0,0 1.57452,-7.755342 6.12312,-10.948713 4.5486,-3.193381 8.92226,-4.333872 8.92226,-4.333872 0,0 4.72354,-0.456199 6.8229,1.368591 2.09935,1.824781 4.5486,3.649571 4.5486,3.649571 0,0 8.047518,-8.895832 16.444925,-5.930561 8.39742,2.96528 11.721389,15.054489 11.721389,15.054489 0,0 8.04752,-8.667737 16.26999,-4.561966 8.22247,4.105772 10.49677,14.826394 10.49677,14.826394 0,0 6.12311,1.368582 8.22246,6.842945 2.09935,5.474358 2.44925,10.720621 2.44925,10.720621 0,0 6.47302,3.877671 7.34774,9.123931 0.87473,5.246261 0.17495,13.229697 0.17495,13.229697 3.69874,12.31819 -16.14814,17.84599 -20.04995,1.75832 0,0 -9.42894,-10.12728 -9.95379,-15.487592 -4.2256,-20.801862 -19.438519,-16.021525 -26.626699,-18.361812 -6.647957,-0.912392 -29.931585,4.971983 -29.931585,4.971983 0,0 -15.77818,22.238984 -18.92721,24.748064 2.69332,14.888917 -12.05014,25.386607 -20.64693,15.600737 z"
     style="fill:#49312d;fill-opacity:1;stroke:#5a110e;stroke-width:0.99999994px;stroke-linecap:butt;stroke-linejoin:miter;stroke-opacity:1" />
</svg>
